<svg xmlns="http://www.w3.org/2000/svg" width="780" height="236" viewBox="0 0 780 236"><title>Gnuplot</title><desc>Produced by GNUPLOT 6.0 patchlevel 4</desc><path fill="#0d1117" d="M0 0h780v236H0z"/><text fill="#fff" color="#000" font-family="Arial" font-size="14" text-anchor="end" transform="translate(107.69 50.67)"><tspan font-weight="bold">jsony</tspan></text><text fill="#fff" color="#000" font-family="Arial" font-size="14" text-anchor="end" transform="translate(107.69 75.78)"><tspan>nanoserde</tspan></text><text fill="#fff" color="#000" font-family="Arial" font-size="14" text-anchor="end" transform="translate(107.69 100.89)"><tspan>serde</tspan></text><text fill="#fff" color="#000" font-family="Arial" font-size="14" text-anchor="end" transform="translate(107.69 126.01)"><tspan>facet</tspan></text><text fill="#fff" color="#000" font-family="Arial" font-size="14" text-anchor="end" transform="translate(107.69 151.12)"><tspan>musli</tspan></text><path fill="none" stroke="#3f3f4f" stroke-width=".5" d="M117.48 171.68V21.01" class="gridline" color="#000"/><g fill="none" stroke="currentColor" color="#000"><path stroke="#555" d="M117.48 171.68v7.87"/><text fill="#fff" stroke="none" font-family="Arial" font-size="14" text-anchor="middle" transform="translate(117.48 199.08)"><tspan> 0</tspan></text></g><path fill="none" stroke="#3f3f4f" stroke-width=".5" d="M246.03 171.68V21.01" class="gridline" color="#000"/><g fill="none" stroke="currentColor" color="#000"><path stroke="#555" d="M246.03 171.68v7.87"/><text fill="#fff" stroke="none" font-family="Arial" font-size="14" text-anchor="middle" transform="translate(246.03 199.08)"><tspan> 500</tspan></text></g><path fill="none" stroke="#3f3f4f" stroke-width=".5" d="M374.59 171.68V21.01" class="gridline" color="#000"/><g fill="none" stroke="currentColor" color="#000"><path stroke="#555" d="M374.59 171.68v7.87"/><text fill="#fff" stroke="none" font-family="Arial" font-size="14" text-anchor="middle" transform="translate(374.59 199.08)"><tspan> 1000</tspan></text></g><path fill="none" stroke="#3f3f4f" stroke-width=".5" d="M503.14 171.68V21.01" class="gridline" color="#000"/><g fill="none" stroke="currentColor" color="#000"><path stroke="#555" d="M503.14 171.68v7.87"/><text fill="#fff" stroke="none" font-family="Arial" font-size="14" text-anchor="middle" transform="translate(503.14 199.08)"><tspan> 1500</tspan></text></g><path fill="none" stroke="#3f3f4f" stroke-width=".5" d="M631.69 171.68V21.01" class="gridline" color="#000"/><g fill="none" stroke="currentColor" color="#000"><path stroke="#555" d="M631.69 171.68v7.87"/><text fill="#fff" stroke="none" font-family="Arial" font-size="14" text-anchor="middle" transform="translate(631.69 199.08)"><tspan> 2000</tspan></text></g><path fill="none" stroke="#555" d="M117.48 21.01v150.67h633.14V21.01z" color="#000"/><title>$Data using (0.5*$2):0:(0.5*$2):(myBoxWidth/2.):($0+1):ytic(1)</title><g fill="none" stroke="currentColor" color="#000"><path fill="#92b2ca" stroke="none" d="M117.48 56.17h19.55v-20.1h-19.55z" shape-rendering="crispEdges"/><path stroke="#92b2ca" d="M117.48 36.08v20.09h19.54V36.08z"/><path fill="#c2c77b" stroke="none" d="M117.48 81.28h38.06v-20.1h-38.06z" shape-rendering="crispEdges"/><path stroke="#c2c77b" d="M117.48 61.19v20.09h38.05V61.19z"/><path fill="#f4cf86" stroke="none" d="M117.48 106.39h61.72v-20.1h-61.72z" shape-rendering="crispEdges"/><path stroke="#f4cf86" d="M117.48 86.3v20.09h61.71V86.3z"/><path fill="#e6a472" stroke="none" d="M117.48 131.5h527.63v-20.1H117.48z" shape-rendering="crispEdges"/><path stroke="#e6a472" d="M117.48 111.41v20.09H645.1v-20.09z"/><path fill="#d77c79" stroke="none" d="M117.48 156.61h38.06v-20.1h-38.06z" shape-rendering="crispEdges"/><path stroke="#d77c79" d="M117.48 136.52v20.09h38.05v-20.09z"/></g><title>$Data using ($2):0:(sprintf(&quot;%d KB&quot;, $2))</title><g fill="#a0a0b0" color="#000" font-family="Arial" font-size="11"><text transform="translate(141.91 49.7)"><tspan>76 KB</tspan></text><text transform="translate(160.42 74.81)"><tspan>148 KB</tspan></text><text transform="translate(184.08 99.92)"><tspan>240 KB</tspan></text><text transform="translate(649.99 125.04)"><tspan>2052 KB</tspan></text><text transform="translate(160.42 150.15)"><tspan>148 KB</tspan></text></g><g fill="none" stroke="currentColor" color="#000"><path stroke="#555" d="M117.48 21.01v150.67h633.14V21.01z"/><text fill="#fff" stroke="none" font-family="Arial" font-size="14" text-anchor="middle" transform="translate(434.05 225.86)"><tspan>Size (KB)</tspan></text></g></svg>