<svg xmlns="http://www.w3.org/2000/svg" width="780" height="236" viewBox="0 0 780 236"><title>Gnuplot</title><desc>Produced by GNUPLOT 6.0 patchlevel 4</desc><path fill="#0d1117" d="M0 0h780v236H0z"/><text fill="#fff" color="#000" font-family="Arial" font-size="14" text-anchor="end" transform="translate(107.69 50.67)"><tspan font-weight="bold">jsony</tspan></text><text fill="#fff" color="#000" font-family="Arial" font-size="14" text-anchor="end" transform="translate(107.69 75.78)"><tspan>nanoserde</tspan></text><text fill="#fff" color="#000" font-family="Arial" font-size="14" text-anchor="end" transform="translate(107.69 100.89)"><tspan>serde</tspan></text><text fill="#fff" color="#000" font-family="Arial" font-size="14" text-anchor="end" transform="translate(107.69 126.01)"><tspan>facet</tspan></text><text fill="#fff" color="#000" font-family="Arial" font-size="14" text-anchor="end" transform="translate(107.69 151.12)"><tspan>musli</tspan></text><path fill="none" stroke="#3f3f4f" stroke-width=".5" d="M117.48 171.68V21.01" class="gridline" color="#000"/><g fill="none" stroke="currentColor" color="#000"><path stroke="#555" d="M117.48 171.68v7.87"/><text fill="#fff" stroke="none" font-family="Arial" font-size="14" text-anchor="middle" transform="translate(117.48 199.08)"><tspan> 0</tspan></text></g><path fill="none" stroke="#3f3f4f" stroke-width=".5" d="M197.93 171.68V21.01" class="gridline" color="#000"/><g fill="none" stroke="currentColor" color="#000"><path stroke="#555" d="M197.93 171.68v7.87"/><text fill="#fff" stroke="none" font-family="Arial" font-size="14" text-anchor="middle" transform="translate(197.93 199.08)"><tspan> 5000</tspan></text></g><path fill="none" stroke="#3f3f4f" stroke-width=".5" d="M278.37 171.68V21.01" class="gridline" color="#000"/><g fill="none" stroke="currentColor" color="#000"><path stroke="#555" d="M278.37 171.68v7.87"/><text fill="#fff" stroke="none" font-family="Arial" font-size="14" text-anchor="middle" transform="translate(278.37 199.08)"><tspan> 10000</tspan></text></g><path fill="none" stroke="#3f3f4f" stroke-width=".5" d="M358.82 171.68V21.01" class="gridline" color="#000"/><g fill="none" stroke="currentColor" color="#000"><path stroke="#555" d="M358.82 171.68v7.87"/><text fill="#fff" stroke="none" font-family="Arial" font-size="14" text-anchor="middle" transform="translate(358.82 199.08)"><tspan> 15000</tspan></text></g><path fill="none" stroke="#3f3f4f" stroke-width=".5" d="M439.26 171.68V21.01" class="gridline" color="#000"/><g fill="none" stroke="currentColor" color="#000"><path stroke="#555" d="M439.26 171.68v7.87"/><text fill="#fff" stroke="none" font-family="Arial" font-size="14" text-anchor="middle" transform="translate(439.26 199.08)"><tspan> 20000</tspan></text></g><path fill="none" stroke="#3f3f4f" stroke-width=".5" d="M519.71 171.68V21.01" class="gridline" color="#000"/><g fill="none" stroke="currentColor" color="#000"><path stroke="#555" d="M519.71 171.68v7.87"/><text fill="#fff" stroke="none" font-family="Arial" font-size="14" text-anchor="middle" transform="translate(519.71 199.08)"><tspan> 25000</tspan></text></g><path fill="none" stroke="#3f3f4f" stroke-width=".5" d="M600.16 171.68V21.01" class="gridline" color="#000"/><g fill="none" stroke="currentColor" color="#000"><path stroke="#555" d="M600.16 171.68v7.87"/><text fill="#fff" stroke="none" font-family="Arial" font-size="14" text-anchor="middle" transform="translate(600.16 199.08)"><tspan> 30000</tspan></text></g><path fill="none" stroke="#3f3f4f" stroke-width=".5" d="M680.6 171.68V21.01" class="gridline" color="#000"/><g fill="none" stroke="currentColor" color="#000"><path stroke="#555" d="M680.6 171.68v7.87"/><text fill="#fff" stroke="none" font-family="Arial" font-size="14" text-anchor="middle" transform="translate(680.6 199.08)"><tspan> 35000</tspan></text></g><path fill="none" stroke="#555" d="M117.48 21.01v150.67h633.14V21.01z" color="#000"/><title>$Data using (0.5*$2):0:(0.5*$2):(myBoxWidth/2.):($0+1):ytic(1)</title><g fill="none" stroke="currentColor" color="#000"><path fill="#92b2ca" stroke="none" d="M117.48 56.17h60.28v-20.1h-60.28z" shape-rendering="crispEdges"/><path stroke="#92b2ca" d="M117.48 36.08v20.09h60.27V36.08z"/><path fill="#c2c77b" stroke="none" d="M117.48 81.28h72.51v-20.1h-72.51z" shape-rendering="crispEdges"/><path stroke="#c2c77b" d="M117.48 61.19v20.09h72.5V61.19z"/><path fill="#f4cf86" stroke="none" d="M117.48 106.39h85.89v-20.1h-85.89z" shape-rendering="crispEdges"/><path stroke="#f4cf86" d="M117.48 86.3v20.09h85.88V86.3z"/><path fill="#e6a472" stroke="none" d="M117.48 131.5h527.63v-20.1H117.48z" shape-rendering="crispEdges"/><path stroke="#e6a472" d="M117.48 111.41v20.09H645.1v-20.09z"/><path fill="#d77c79" stroke="none" d="M117.48 156.61h115.37v-20.1H117.48z" shape-rendering="crispEdges"/><path stroke="#d77c79" d="M117.48 136.52v20.09h115.36v-20.09z"/></g><title>$Data using ($2):0:(sprintf(&quot;%d ms&quot;, $2))</title><g fill="#a0a0b0" color="#000" font-family="Arial" font-size="11"><text transform="translate(182.64 49.7)"><tspan>3746 ms</tspan></text><text transform="translate(194.87 74.81)"><tspan>4506 ms</tspan></text><text transform="translate(208.25 99.92)"><tspan>5337 ms</tspan></text><text transform="translate(649.99 125.04)"><tspan>32793 ms</tspan></text><text transform="translate(237.73 150.15)"><tspan>7169 ms</tspan></text></g><g fill="none" stroke="currentColor" color="#000"><path stroke="#555" d="M117.48 21.01v150.67h633.14V21.01z"/><text fill="#fff" stroke="none" font-family="Arial" font-size="14" text-anchor="middle" transform="translate(434.05 225.86)"><tspan>Time (ms)</tspan></text></g></svg>