<svg xmlns="http://www.w3.org/2000/svg" width="780" height="236" viewBox="0 0 780 236"><title>Gnuplot</title><desc>Produced by GNUPLOT 6.0 patchlevel 4</desc><path fill="#0d1117" d="M0 0h780v236H0z"/><text fill="#fff" color="#000" font-family="Arial" font-size="14" text-anchor="end" transform="translate(107.69 50.67)"><tspan font-weight="bold">jsony</tspan></text><text fill="#fff" color="#000" font-family="Arial" font-size="14" text-anchor="end" transform="translate(107.69 75.78)"><tspan>nanoserde</tspan></text><text fill="#fff" color="#000" font-family="Arial" font-size="14" text-anchor="end" transform="translate(107.69 100.89)"><tspan>serde</tspan></text><text fill="#fff" color="#000" font-family="Arial" font-size="14" text-anchor="end" transform="translate(107.69 126.01)"><tspan>facet</tspan></text><text fill="#fff" color="#000" font-family="Arial" font-size="14" text-anchor="end" transform="translate(107.69 151.12)"><tspan>musli</tspan></text><path fill="none" stroke="#3f3f4f" stroke-width=".5" d="M117.48 171.68V21.01" class="gridline" color="#000"/><g fill="none" stroke="currentColor" color="#000"><path stroke="#555" d="M117.48 171.68v7.87"/><text fill="#fff" stroke="none" font-family="Arial" font-size="14" text-anchor="middle" transform="translate(117.48 199.08)"><tspan> 0</tspan></text></g><path fill="none" stroke="#3f3f4f" stroke-width=".5" d="M190.17 171.68V21.01" class="gridline" color="#000"/><g fill="none" stroke="currentColor" color="#000"><path stroke="#555" d="M190.17 171.68v7.87"/><text fill="#fff" stroke="none" font-family="Arial" font-size="14" text-anchor="middle" transform="translate(190.17 199.08)"><tspan> 100</tspan></text></g><path fill="none" stroke="#3f3f4f" stroke-width=".5" d="M262.86 171.68V21.01" class="gridline" color="#000"/><g fill="none" stroke="currentColor" color="#000"><path stroke="#555" d="M262.86 171.68v7.87"/><text fill="#fff" stroke="none" font-family="Arial" font-size="14" text-anchor="middle" transform="translate(262.86 199.08)"><tspan> 200</tspan></text></g><path fill="none" stroke="#3f3f4f" stroke-width=".5" d="M335.56 171.68V21.01" class="gridline" color="#000"/><g fill="none" stroke="currentColor" color="#000"><path stroke="#555" d="M335.56 171.68v7.87"/><text fill="#fff" stroke="none" font-family="Arial" font-size="14" text-anchor="middle" transform="translate(335.56 199.08)"><tspan> 300</tspan></text></g><path fill="none" stroke="#3f3f4f" stroke-width=".5" d="M408.25 171.68V21.01" class="gridline" color="#000"/><g fill="none" stroke="currentColor" color="#000"><path stroke="#555" d="M408.25 171.68v7.87"/><text fill="#fff" stroke="none" font-family="Arial" font-size="14" text-anchor="middle" transform="translate(408.25 199.08)"><tspan> 400</tspan></text></g><path fill="none" stroke="#3f3f4f" stroke-width=".5" d="M480.94 171.68V21.01" class="gridline" color="#000"/><g fill="none" stroke="currentColor" color="#000"><path stroke="#555" d="M480.94 171.68v7.87"/><text fill="#fff" stroke="none" font-family="Arial" font-size="14" text-anchor="middle" transform="translate(480.94 199.08)"><tspan> 500</tspan></text></g><path fill="none" stroke="#3f3f4f" stroke-width=".5" d="M553.63 171.68V21.01" class="gridline" color="#000"/><g fill="none" stroke="currentColor" color="#000"><path stroke="#555" d="M553.63 171.68v7.87"/><text fill="#fff" stroke="none" font-family="Arial" font-size="14" text-anchor="middle" transform="translate(553.63 199.08)"><tspan> 600</tspan></text></g><path fill="none" stroke="#3f3f4f" stroke-width=".5" d="M626.33 171.68V21.01" class="gridline" color="#000"/><g fill="none" stroke="currentColor" color="#000"><path stroke="#555" d="M626.33 171.68v7.87"/><text fill="#fff" stroke="none" font-family="Arial" font-size="14" text-anchor="middle" transform="translate(626.33 199.08)"><tspan> 700</tspan></text></g><path fill="none" stroke="#3f3f4f" stroke-width=".5" d="M699.02 171.68V21.01" class="gridline" color="#000"/><g fill="none" stroke="currentColor" color="#000"><path stroke="#555" d="M699.02 171.68v7.87"/><text fill="#fff" stroke="none" font-family="Arial" font-size="14" text-anchor="middle" transform="translate(699.02 199.08)"><tspan> 800</tspan></text></g><path fill="none" stroke="#555" d="M117.48 21.01v150.67h633.14V21.01z" color="#000"/><title>$Data using (0.5*$2):0:(0.5*$2):(myBoxWidth/2.):($0+1):ytic(1)</title><g fill="none" stroke="currentColor" color="#000"><path fill="#92b2ca" stroke="none" d="M117.48 56.17h26.75v-20.1h-26.75z" shape-rendering="crispEdges"/><path stroke="#92b2ca" d="M117.48 36.08v20.09h26.74V36.08z"/><path fill="#c2c77b" stroke="none" d="M117.48 81.28h52.96v-20.1h-52.96z" shape-rendering="crispEdges"/><path stroke="#c2c77b" d="M117.48 61.19v20.09h52.95V61.19z"/><path fill="#f4cf86" stroke="none" d="M117.48 106.39h145.47v-20.1H117.48z" shape-rendering="crispEdges"/><path stroke="#f4cf86" d="M117.48 86.3v20.09h145.46V86.3z"/><path fill="#e6a472" stroke="none" d="M117.48 131.5h187.09v-20.1H117.48z" shape-rendering="crispEdges"/><path stroke="#e6a472" d="M117.48 111.41v20.09h187.08v-20.09z"/><path fill="#d77c79" stroke="none" d="M117.48 156.61h527.63v-20.1H117.48z" shape-rendering="crispEdges"/><path stroke="#d77c79" d="M117.48 136.52v20.09H645.1v-20.09z"/></g><title>$Data using ($2):0:(sprintf(&quot;%d ms&quot;, $2))</title><g fill="#a0a0b0" color="#000" font-family="Arial" font-size="11"><text transform="translate(149.11 49.7)"><tspan>36 ms</tspan></text><text transform="translate(175.32 74.81)"><tspan>72 ms</tspan></text><text transform="translate(267.83 99.92)"><tspan>200 ms</tspan></text><text transform="translate(309.45 125.04)"><tspan>257 ms</tspan></text><text transform="translate(649.99 150.15)"><tspan>725 ms</tspan></text></g><g fill="none" stroke="currentColor" color="#000"><path stroke="#555" d="M117.48 21.01v150.67h633.14V21.01z"/><text fill="#fff" stroke="none" font-family="Arial" font-size="14" text-anchor="middle" transform="translate(434.05 225.86)"><tspan>Time (ms)</tspan></text></g></svg>