<svg xmlns="http://www.w3.org/2000/svg" width="780" height="284" viewBox="0 0 780 284"><title>Gnuplot</title><desc>Produced by GNUPLOT 6.0 patchlevel 4</desc><path fill="#0d1117" d="M0 0h780v284H0z"/><text fill="#fff" color="#000" font-family="Arial" font-size="14" text-anchor="end" transform="translate(107.69 50.69)"><tspan font-weight="bold">jsony</tspan></text><text fill="#fff" color="#000" font-family="Arial" font-size="14" text-anchor="end" transform="translate(107.69 75.83)"><tspan>nanoserde</tspan></text><text fill="#fff" color="#000" font-family="Arial" font-size="14" text-anchor="end" transform="translate(107.69 100.96)"><tspan>miniserde</tspan></text><text fill="#fff" color="#000" font-family="Arial" font-size="14" text-anchor="end" transform="translate(107.69 126.09)"><tspan>midiserde</tspan></text><text fill="#fff" color="#000" font-family="Arial" font-size="14" text-anchor="end" transform="translate(107.69 151.23)"><tspan>serde</tspan></text><text fill="#fff" color="#000" font-family="Arial" font-size="14" text-anchor="end" transform="translate(107.69 176.36)"><tspan>facet</tspan></text><text fill="#fff" color="#000" font-family="Arial" font-size="14" text-anchor="end" transform="translate(107.69 201.5)"><tspan>musli</tspan></text><path fill="none" stroke="#3f3f4f" stroke-width=".5" d="M117.48 222.08V21.01" class="gridline" color="#000"/><g fill="none" stroke="currentColor" color="#000"><path stroke="#555" d="M117.48 222.08v7.87"/><text fill="#fff" stroke="none" font-family="Arial" font-size="14" text-anchor="middle" transform="translate(117.48 247.46)"><tspan> 0</tspan></text></g><path fill="none" stroke="#3f3f4f" stroke-width=".5" d="M213.9 222.08V21.01" class="gridline" color="#000"/><g fill="none" stroke="currentColor" color="#000"><path stroke="#555" d="M213.9 222.08v7.87"/><text fill="#fff" stroke="none" font-family="Arial" font-size="14" text-anchor="middle" transform="translate(213.9 247.46)"><tspan> 500</tspan></text></g><path fill="none" stroke="#3f3f4f" stroke-width=".5" d="M310.31 222.08V21.01" class="gridline" color="#000"/><g fill="none" stroke="currentColor" color="#000"><path stroke="#555" d="M310.31 222.08v7.87"/><text fill="#fff" stroke="none" font-family="Arial" font-size="14" text-anchor="middle" transform="translate(310.31 247.46)"><tspan> 1000</tspan></text></g><path fill="none" stroke="#3f3f4f" stroke-width=".5" d="M406.73 222.08V21.01" class="gridline" color="#000"/><g fill="none" stroke="currentColor" color="#000"><path stroke="#555" d="M406.73 222.08v7.87"/><text fill="#fff" stroke="none" font-family="Arial" font-size="14" text-anchor="middle" transform="translate(406.73 247.46)"><tspan> 1500</tspan></text></g><path fill="none" stroke="#3f3f4f" stroke-width=".5" d="M503.15 222.08V21.01" class="gridline" color="#000"/><g fill="none" stroke="currentColor" color="#000"><path stroke="#555" d="M503.15 222.08v7.87"/><text fill="#fff" stroke="none" font-family="Arial" font-size="14" text-anchor="middle" transform="translate(503.15 247.46)"><tspan> 2000</tspan></text></g><path fill="none" stroke="#3f3f4f" stroke-width=".5" d="M599.56 222.08V21.01" class="gridline" color="#000"/><g fill="none" stroke="currentColor" color="#000"><path stroke="#555" d="M599.56 222.08v7.87"/><text fill="#fff" stroke="none" font-family="Arial" font-size="14" text-anchor="middle" transform="translate(599.56 247.46)"><tspan> 2500</tspan></text></g><path fill="none" stroke="#3f3f4f" stroke-width=".5" d="M695.98 222.08V21.01" class="gridline" color="#000"/><g fill="none" stroke="currentColor" color="#000"><path stroke="#555" d="M695.98 222.08v7.87"/><text fill="#fff" stroke="none" font-family="Arial" font-size="14" text-anchor="middle" transform="translate(695.98 247.46)"><tspan> 3000</tspan></text></g><path fill="none" stroke="#555" d="M117.48 21.01v201.07h633.14V21.01z" color="#000"/><title>$Data using (0.5*$2):0:(0.5*$2):(myBoxWidth/2.):($0+1):ytic(1)</title><g fill="none" stroke="currentColor" color="#000"><path fill="#92b2ca" stroke="none" d="M117.48 56.2h40.12V36.08h-40.12z" shape-rendering="crispEdges"/><path stroke="#92b2ca" d="M117.48 36.09V56.2h40.11V36.09z"/><path fill="#c2c77b" stroke="none" d="M117.48 81.33h86.4V61.21h-86.4z" shape-rendering="crispEdges"/><path stroke="#c2c77b" d="M117.48 61.22v20.11h86.39V61.22z"/><path fill="#f4cf86" stroke="none" d="M117.48 106.46h58.63V86.35h-58.63z" shape-rendering="crispEdges"/><path stroke="#f4cf86" d="M117.48 86.36v20.1h58.62v-20.1z"/><path fill="#e6a472" stroke="none" d="M117.48 131.6h55.55v-20.12h-55.55z" shape-rendering="crispEdges"/><path stroke="#e6a472" d="M117.48 111.49v20.11h55.54v-20.11z"/><path fill="#d77c79" stroke="none" d="M117.48 156.73h160.45v-20.11H117.48z" shape-rendering="crispEdges"/><path stroke="#d77c79" d="M117.48 136.63v20.1h160.44v-20.1z"/><path fill="#d5a8b7" stroke="none" d="M117.48 181.87h527.63v-20.12H117.48z" shape-rendering="crispEdges"/><path stroke="#d5a8b7" d="M117.48 161.76v20.11H645.1v-20.11z"/><path fill="#c0a7cc" stroke="none" d="M117.48 207h129.59v-20.12H117.48z" shape-rendering="crispEdges"/><path stroke="#c0a7cc" d="M117.48 186.89V207h129.58v-20.11z"/></g><title>$Data using ($2):0:(sprintf(&quot;%d KB&quot;, $2))</title><g fill="#a0a0b0" color="#000" font-family="Arial" font-size="11"><text transform="translate(162.48 49.72)"><tspan>208 KB</tspan></text><text transform="translate(208.76 74.86)"><tspan>448 KB</tspan></text><text transform="translate(180.99 99.99)"><tspan>304 KB</tspan></text><text transform="translate(177.91 125.12)"><tspan>288 KB</tspan></text><text transform="translate(282.81 150.26)"><tspan>832 KB</tspan></text><text transform="translate(649.99 175.39)"><tspan>2736 KB</tspan></text><text transform="translate(251.95 200.53)"><tspan>672 KB</tspan></text></g><g fill="none" stroke="currentColor" color="#000"><path stroke="#555" d="M117.48 21.01v201.07h633.14V21.01z"/><text fill="#fff" stroke="none" font-family="Arial" font-size="14" text-anchor="middle" transform="translate(434.05 273.86)"><tspan>Size (KB)</tspan></text></g></svg>