<svg xmlns="http://www.w3.org/2000/svg" width="780" height="284" viewBox="0 0 780 284"><title>Gnuplot</title><desc>Produced by GNUPLOT 6.0 patchlevel 4</desc><path fill="#0d1117" d="M0 0h780v284H0z"/><text fill="#fff" color="#000" font-family="Arial" font-size="14" text-anchor="end" transform="translate(107.69 50.69)"><tspan font-weight="bold">jsony</tspan></text><text fill="#fff" color="#000" font-family="Arial" font-size="14" text-anchor="end" transform="translate(107.69 75.83)"><tspan>nanoserde</tspan></text><text fill="#fff" color="#000" font-family="Arial" font-size="14" text-anchor="end" transform="translate(107.69 100.96)"><tspan>miniserde</tspan></text><text fill="#fff" color="#000" font-family="Arial" font-size="14" text-anchor="end" transform="translate(107.69 126.09)"><tspan>midiserde</tspan></text><text fill="#fff" color="#000" font-family="Arial" font-size="14" text-anchor="end" transform="translate(107.69 151.23)"><tspan>serde</tspan></text><text fill="#fff" color="#000" font-family="Arial" font-size="14" text-anchor="end" transform="translate(107.69 176.36)"><tspan>facet</tspan></text><text fill="#fff" color="#000" font-family="Arial" font-size="14" text-anchor="end" transform="translate(107.69 201.5)"><tspan>musli</tspan></text><path fill="none" stroke="#3f3f4f" stroke-width=".5" d="M117.48 222.08V21.01" class="gridline" color="#000"/><g fill="none" stroke="currentColor" color="#000"><path stroke="#555" d="M117.48 222.08v7.87"/><text fill="#fff" stroke="none" font-family="Arial" font-size="14" text-anchor="middle" transform="translate(117.48 247.46)"><tspan> 0</tspan></text></g><path fill="none" stroke="#3f3f4f" stroke-width=".5" d="M190.67 222.08V21.01" class="gridline" color="#000"/><g fill="none" stroke="currentColor" color="#000"><path stroke="#555" d="M190.67 222.08v7.87"/><text fill="#fff" stroke="none" font-family="Arial" font-size="14" text-anchor="middle" transform="translate(190.67 247.46)"><tspan> 2000</tspan></text></g><path fill="none" stroke="#3f3f4f" stroke-width=".5" d="M263.86 222.08V21.01" class="gridline" color="#000"/><g fill="none" stroke="currentColor" color="#000"><path stroke="#555" d="M263.86 222.08v7.87"/><text fill="#fff" stroke="none" font-family="Arial" font-size="14" text-anchor="middle" transform="translate(263.86 247.46)"><tspan> 4000</tspan></text></g><path fill="none" stroke="#3f3f4f" stroke-width=".5" d="M337.06 222.08V21.01" class="gridline" color="#000"/><g fill="none" stroke="currentColor" color="#000"><path stroke="#555" d="M337.06 222.08v7.87"/><text fill="#fff" stroke="none" font-family="Arial" font-size="14" text-anchor="middle" transform="translate(337.06 247.46)"><tspan> 6000</tspan></text></g><path fill="none" stroke="#3f3f4f" stroke-width=".5" d="M410.25 222.08V21.01" class="gridline" color="#000"/><g fill="none" stroke="currentColor" color="#000"><path stroke="#555" d="M410.25 222.08v7.87"/><text fill="#fff" stroke="none" font-family="Arial" font-size="14" text-anchor="middle" transform="translate(410.25 247.46)"><tspan> 8000</tspan></text></g><path fill="none" stroke="#3f3f4f" stroke-width=".5" d="M483.44 222.08V21.01" class="gridline" color="#000"/><g fill="none" stroke="currentColor" color="#000"><path stroke="#555" d="M483.44 222.08v7.87"/><text fill="#fff" stroke="none" font-family="Arial" font-size="14" text-anchor="middle" transform="translate(483.44 247.46)"><tspan> 10000</tspan></text></g><path fill="none" stroke="#3f3f4f" stroke-width=".5" d="M556.63 222.08V21.01" class="gridline" color="#000"/><g fill="none" stroke="currentColor" color="#000"><path stroke="#555" d="M556.63 222.08v7.87"/><text fill="#fff" stroke="none" font-family="Arial" font-size="14" text-anchor="middle" transform="translate(556.63 247.46)"><tspan> 12000</tspan></text></g><path fill="none" stroke="#3f3f4f" stroke-width=".5" d="M629.83 222.08V21.01" class="gridline" color="#000"/><g fill="none" stroke="currentColor" color="#000"><path stroke="#555" d="M629.83 222.08v7.87"/><text fill="#fff" stroke="none" font-family="Arial" font-size="14" text-anchor="middle" transform="translate(629.83 247.46)"><tspan> 14000</tspan></text></g><path fill="none" stroke="#3f3f4f" stroke-width=".5" d="M703.02 222.08V21.01" class="gridline" color="#000"/><g fill="none" stroke="currentColor" color="#000"><path stroke="#555" d="M703.02 222.08v7.87"/><text fill="#fff" stroke="none" font-family="Arial" font-size="14" text-anchor="middle" transform="translate(703.02 247.46)"><tspan> 16000</tspan></text></g><path fill="none" stroke="#555" d="M117.48 21.01v201.07h633.14V21.01z" color="#000"/><title>$Data using (0.5*$2):0:(0.5*$2):(myBoxWidth/2.):($0+1):ytic(1)</title><g fill="none" stroke="currentColor" color="#000"><path fill="#92b2ca" stroke="none" d="M117.48 56.2h38.04V36.08h-38.04z" shape-rendering="crispEdges"/><path stroke="#92b2ca" d="M117.48 36.09V56.2h38.03V36.09z"/><path fill="#c2c77b" stroke="none" d="M117.48 81.33h142.48V61.21H117.48z" shape-rendering="crispEdges"/><path stroke="#c2c77b" d="M117.48 61.22v20.11h142.47V61.22z"/><path fill="#f4cf86" stroke="none" d="M117.48 106.46h94.53V86.35h-94.53z" shape-rendering="crispEdges"/><path stroke="#f4cf86" d="M117.48 86.36v20.1H212v-20.1z"/><path fill="#e6a472" stroke="none" d="M117.48 131.6H234.9v-20.12H117.48z" shape-rendering="crispEdges"/><path stroke="#e6a472" d="M117.48 111.49v20.11h117.41v-20.11z"/><path fill="#d77c79" stroke="none" d="M117.48 156.73H388.8v-20.11H117.48z" shape-rendering="crispEdges"/><path stroke="#d77c79" d="M117.48 136.63v20.1h271.31v-20.1z"/><path fill="#d5a8b7" stroke="none" d="M117.48 181.87h293.56v-20.12H117.48z" shape-rendering="crispEdges"/><path stroke="#d5a8b7" d="M117.48 161.76v20.11h293.55v-20.11z"/><path fill="#c0a7cc" stroke="none" d="M117.48 207h527.63v-20.12H117.48z" shape-rendering="crispEdges"/><path stroke="#c0a7cc" d="M117.48 186.89V207H645.1v-20.11z"/></g><title>$Data using ($2):0:(sprintf(&quot;%d ms&quot;, $2))</title><g fill="#a0a0b0" color="#000" font-family="Arial" font-size="11"><text transform="translate(160.4 49.72)"><tspan>1039 ms</tspan></text><text transform="translate(264.84 74.86)"><tspan>3892 ms</tspan></text><text transform="translate(216.89 99.99)"><tspan>2582 ms</tspan></text><text transform="translate(239.78 125.12)"><tspan>3208 ms</tspan></text><text transform="translate(393.68 150.26)"><tspan>7413 ms</tspan></text><text transform="translate(415.92 175.39)"><tspan>8021 ms</tspan></text><text transform="translate(649.99 200.53)"><tspan>14417 ms</tspan></text></g><g fill="none" stroke="currentColor" color="#000"><path stroke="#555" d="M117.48 21.01v201.07h633.14V21.01z"/><text fill="#fff" stroke="none" font-family="Arial" font-size="14" text-anchor="middle" transform="translate(434.05 273.86)"><tspan>Time (ms)</tspan></text></g></svg>