<svg xmlns="http://www.w3.org/2000/svg" width="780" height="284" viewBox="0 0 780 284"><title>Gnuplot</title><desc>Produced by GNUPLOT 6.0 patchlevel 4</desc><path fill="#0d1117" d="M0 0h780v284H0z"/><text fill="#fff" color="#000" font-family="Arial" font-size="14" text-anchor="end" transform="translate(107.69 50.69)"><tspan font-weight="bold">jsony</tspan></text><text fill="#fff" color="#000" font-family="Arial" font-size="14" text-anchor="end" transform="translate(107.69 75.83)"><tspan>nanoserde</tspan></text><text fill="#fff" color="#000" font-family="Arial" font-size="14" text-anchor="end" transform="translate(107.69 100.96)"><tspan>miniserde</tspan></text><text fill="#fff" color="#000" font-family="Arial" font-size="14" text-anchor="end" transform="translate(107.69 126.09)"><tspan>midiserde</tspan></text><text fill="#fff" color="#000" font-family="Arial" font-size="14" text-anchor="end" transform="translate(107.69 151.23)"><tspan>serde</tspan></text><text fill="#fff" color="#000" font-family="Arial" font-size="14" text-anchor="end" transform="translate(107.69 176.36)"><tspan>facet</tspan></text><text fill="#fff" color="#000" font-family="Arial" font-size="14" text-anchor="end" transform="translate(107.69 201.5)"><tspan>musli</tspan></text><path fill="none" stroke="#3f3f4f" stroke-width=".5" d="M117.48 222.08V21.01" class="gridline" color="#000"/><g fill="none" stroke="currentColor" color="#000"><path stroke="#555" d="M117.48 222.08v7.87"/><text fill="#fff" stroke="none" font-family="Arial" font-size="14" text-anchor="middle" transform="translate(117.48 247.46)"><tspan> 0</tspan></text></g><path fill="none" stroke="#3f3f4f" stroke-width=".5" d="M228.94 222.08V21.01" class="gridline" color="#000"/><g fill="none" stroke="currentColor" color="#000"><path stroke="#555" d="M228.94 222.08v7.87"/><text fill="#fff" stroke="none" font-family="Arial" font-size="14" text-anchor="middle" transform="translate(228.94 247.46)"><tspan> 1000</tspan></text></g><path fill="none" stroke="#3f3f4f" stroke-width=".5" d="M340.39 222.08V21.01" class="gridline" color="#000"/><g fill="none" stroke="currentColor" color="#000"><path stroke="#555" d="M340.39 222.08v7.87"/><text fill="#fff" stroke="none" font-family="Arial" font-size="14" text-anchor="middle" transform="translate(340.39 247.46)"><tspan> 2000</tspan></text></g><path fill="none" stroke="#3f3f4f" stroke-width=".5" d="M451.85 222.08V21.01" class="gridline" color="#000"/><g fill="none" stroke="currentColor" color="#000"><path stroke="#555" d="M451.85 222.08v7.87"/><text fill="#fff" stroke="none" font-family="Arial" font-size="14" text-anchor="middle" transform="translate(451.85 247.46)"><tspan> 3000</tspan></text></g><path fill="none" stroke="#3f3f4f" stroke-width=".5" d="M563.3 222.08V21.01" class="gridline" color="#000"/><g fill="none" stroke="currentColor" color="#000"><path stroke="#555" d="M563.3 222.08v7.87"/><text fill="#fff" stroke="none" font-family="Arial" font-size="14" text-anchor="middle" transform="translate(563.3 247.46)"><tspan> 4000</tspan></text></g><path fill="none" stroke="#3f3f4f" stroke-width=".5" d="M674.76 222.08V21.01" class="gridline" color="#000"/><g fill="none" stroke="currentColor" color="#000"><path stroke="#555" d="M674.76 222.08v7.87"/><text fill="#fff" stroke="none" font-family="Arial" font-size="14" text-anchor="middle" transform="translate(674.76 247.46)"><tspan> 5000</tspan></text></g><path fill="none" stroke="#555" d="M117.48 21.01v201.07h633.14V21.01z" color="#000"/><title>$Data using (0.5*$2):0:(0.5*$2):(myBoxWidth/2.):($0+1):ytic(1)</title><g fill="none" stroke="currentColor" color="#000"><path fill="#92b2ca" stroke="none" d="M117.48 56.2h48.56V36.08h-48.56z" shape-rendering="crispEdges"/><path stroke="#92b2ca" d="M117.48 36.09V56.2h48.55V36.09z"/><path fill="#c2c77b" stroke="none" d="M117.48 81.33h92.01V61.21h-92.01z" shape-rendering="crispEdges"/><path stroke="#c2c77b" d="M117.48 61.22v20.11h92V61.22z"/><path fill="#f4cf86" stroke="none" d="M117.48 106.46h83.51V86.35h-83.51z" shape-rendering="crispEdges"/><path stroke="#f4cf86" d="M117.48 86.36v20.1h83.5v-20.1z"/><path fill="#e6a472" stroke="none" d="M117.48 131.6h85.01v-20.12h-85.01z" shape-rendering="crispEdges"/><path stroke="#e6a472" d="M117.48 111.49v20.11h85v-20.11z"/><path fill="#d77c79" stroke="none" d="M117.48 156.73h50.06v-20.11h-50.06z" shape-rendering="crispEdges"/><path stroke="#d77c79" d="M117.48 136.63v20.1h50.05v-20.1z"/><path fill="#d5a8b7" stroke="none" d="M117.48 181.87h527.63v-20.12H117.48z" shape-rendering="crispEdges"/><path stroke="#d5a8b7" d="M117.48 161.76v20.11H645.1v-20.11z"/><path fill="#c0a7cc" stroke="none" d="M117.48 207h80.72v-20.12h-80.72z" shape-rendering="crispEdges"/><path stroke="#c0a7cc" d="M117.48 186.89V207h80.71v-20.11z"/></g><title>$Data using ($2):0:(sprintf(&quot;%d ms&quot;, $2))</title><g fill="#a0a0b0" color="#000" font-family="Arial" font-size="11"><text transform="translate(170.92 49.72)"><tspan>435 ms</tspan></text><text transform="translate(214.37 74.86)"><tspan>825 ms</tspan></text><text transform="translate(205.87 99.99)"><tspan>749 ms</tspan></text><text transform="translate(207.37 125.12)"><tspan>762 ms</tspan></text><text transform="translate(172.42 150.26)"><tspan>449 ms</tspan></text><text transform="translate(649.99 175.39)"><tspan>4733 ms</tspan></text><text transform="translate(203.08 200.53)"><tspan>724 ms</tspan></text></g><g fill="none" stroke="currentColor" color="#000"><path stroke="#555" d="M117.48 21.01v201.07h633.14V21.01z"/><text fill="#fff" stroke="none" font-family="Arial" font-size="14" text-anchor="middle" transform="translate(434.05 273.86)"><tspan>Time (ms)</tspan></text></g></svg>