<svg xmlns="http://www.w3.org/2000/svg" width="780" height="284" viewBox="0 0 780 284"><title>Gnuplot</title><desc>Produced by GNUPLOT 6.0 patchlevel 4</desc><path fill="#0d1117" d="M0 0h780v284H0z"/><text fill="#fff" color="#000" font-family="Arial" font-size="14" text-anchor="end" transform="translate(107.69 50.69)"><tspan font-weight="bold">jsony</tspan></text><text fill="#fff" color="#000" font-family="Arial" font-size="14" text-anchor="end" transform="translate(107.69 75.83)"><tspan>nanoserde</tspan></text><text fill="#fff" color="#000" font-family="Arial" font-size="14" text-anchor="end" transform="translate(107.69 100.96)"><tspan>miniserde</tspan></text><text fill="#fff" color="#000" font-family="Arial" font-size="14" text-anchor="end" transform="translate(107.69 126.09)"><tspan>midiserde</tspan></text><text fill="#fff" color="#000" font-family="Arial" font-size="14" text-anchor="end" transform="translate(107.69 151.23)"><tspan>serde</tspan></text><text fill="#fff" color="#000" font-family="Arial" font-size="14" text-anchor="end" transform="translate(107.69 176.36)"><tspan>facet</tspan></text><text fill="#fff" color="#000" font-family="Arial" font-size="14" text-anchor="end" transform="translate(107.69 201.5)"><tspan>musli</tspan></text><path fill="none" stroke="#3f3f4f" stroke-width=".5" d="M117.48 222.08V21.01" class="gridline" color="#000"/><g fill="none" stroke="currentColor" color="#000"><path stroke="#555" d="M117.48 222.08v7.87"/><text fill="#fff" stroke="none" font-family="Arial" font-size="14" text-anchor="middle" transform="translate(117.48 247.46)"><tspan> 0</tspan></text></g><path fill="none" stroke="#3f3f4f" stroke-width=".5" d="M193.39 222.08V21.01" class="gridline" color="#000"/><g fill="none" stroke="currentColor" color="#000"><path stroke="#555" d="M193.39 222.08v7.87"/><text fill="#fff" stroke="none" font-family="Arial" font-size="14" text-anchor="middle" transform="translate(193.39 247.46)"><tspan> 5000</tspan></text></g><path fill="none" stroke="#3f3f4f" stroke-width=".5" d="M269.3 222.08V21.01" class="gridline" color="#000"/><g fill="none" stroke="currentColor" color="#000"><path stroke="#555" d="M269.3 222.08v7.87"/><text fill="#fff" stroke="none" font-family="Arial" font-size="14" text-anchor="middle" transform="translate(269.3 247.46)"><tspan> 10000</tspan></text></g><path fill="none" stroke="#3f3f4f" stroke-width=".5" d="M345.22 222.08V21.01" class="gridline" color="#000"/><g fill="none" stroke="currentColor" color="#000"><path stroke="#555" d="M345.22 222.08v7.87"/><text fill="#fff" stroke="none" font-family="Arial" font-size="14" text-anchor="middle" transform="translate(345.22 247.46)"><tspan> 15000</tspan></text></g><path fill="none" stroke="#3f3f4f" stroke-width=".5" d="M421.13 222.08V21.01" class="gridline" color="#000"/><g fill="none" stroke="currentColor" color="#000"><path stroke="#555" d="M421.13 222.08v7.87"/><text fill="#fff" stroke="none" font-family="Arial" font-size="14" text-anchor="middle" transform="translate(421.13 247.46)"><tspan> 20000</tspan></text></g><path fill="none" stroke="#3f3f4f" stroke-width=".5" d="M497.04 222.08V21.01" class="gridline" color="#000"/><g fill="none" stroke="currentColor" color="#000"><path stroke="#555" d="M497.04 222.08v7.87"/><text fill="#fff" stroke="none" font-family="Arial" font-size="14" text-anchor="middle" transform="translate(497.04 247.46)"><tspan> 25000</tspan></text></g><path fill="none" stroke="#3f3f4f" stroke-width=".5" d="M572.95 222.08V21.01" class="gridline" color="#000"/><g fill="none" stroke="currentColor" color="#000"><path stroke="#555" d="M572.95 222.08v7.87"/><text fill="#fff" stroke="none" font-family="Arial" font-size="14" text-anchor="middle" transform="translate(572.95 247.46)"><tspan> 30000</tspan></text></g><path fill="none" stroke="#3f3f4f" stroke-width=".5" d="M648.86 222.08V21.01" class="gridline" color="#000"/><g fill="none" stroke="currentColor" color="#000"><path stroke="#555" d="M648.86 222.08v7.87"/><text fill="#fff" stroke="none" font-family="Arial" font-size="14" text-anchor="middle" transform="translate(648.86 247.46)"><tspan> 35000</tspan></text></g><path fill="none" stroke="#3f3f4f" stroke-width=".5" d="M724.78 222.08V21.01" class="gridline" color="#000"/><g fill="none" stroke="currentColor" color="#000"><path stroke="#555" d="M724.78 222.08v7.87"/><text fill="#fff" stroke="none" font-family="Arial" font-size="14" text-anchor="middle" transform="translate(724.78 247.46)"><tspan> 40000</tspan></text></g><path fill="none" stroke="#555" d="M117.48 21.01v201.07h633.14V21.01z" color="#000"/><title>$Data using (0.5*$2):0:(0.5*$2):(myBoxWidth/2.):($0+1):ytic(1)</title><g fill="none" stroke="currentColor" color="#000"><path fill="#92b2ca" stroke="none" d="M117.48 56.2h64V36.08h-64z" shape-rendering="crispEdges"/><path stroke="#92b2ca" d="M117.48 36.09V56.2h63.99V36.09z"/><path fill="#c2c77b" stroke="none" d="M117.48 81.33h73.3V61.21h-73.3z" shape-rendering="crispEdges"/><path stroke="#c2c77b" d="M117.48 61.22v20.11h73.29V61.22z"/><path fill="#f4cf86" stroke="none" d="M117.48 106.46h81.39V86.35h-81.39z" shape-rendering="crispEdges"/><path stroke="#f4cf86" d="M117.48 86.36v20.1h81.38v-20.1z"/><path fill="#e6a472" stroke="none" d="M117.48 131.6h83.21v-20.12h-83.21z" shape-rendering="crispEdges"/><path stroke="#e6a472" d="M117.48 111.49v20.11h83.2v-20.11z"/><path fill="#d77c79" stroke="none" d="M117.48 156.73h119.53v-20.11H117.48z" shape-rendering="crispEdges"/><path stroke="#d77c79" d="M117.48 136.63v20.1H237v-20.1z"/><path fill="#d5a8b7" stroke="none" d="M117.48 181.87h527.63v-20.12H117.48z" shape-rendering="crispEdges"/><path stroke="#d5a8b7" d="M117.48 161.76v20.11H645.1v-20.11z"/><path fill="#c0a7cc" stroke="none" d="M117.48 207H267.6v-20.12H117.48z" shape-rendering="crispEdges"/><path stroke="#c0a7cc" d="M117.48 186.89V207h150.11v-20.11z"/></g><title>$Data using ($2):0:(sprintf(&quot;%d ms&quot;, $2))</title><g fill="#a0a0b0" color="#000" font-family="Arial" font-size="11"><text transform="translate(186.36 49.72)"><tspan>4214 ms</tspan></text><text transform="translate(195.66 74.86)"><tspan>4827 ms</tspan></text><text transform="translate(203.75 99.99)"><tspan>5360 ms</tspan></text><text transform="translate(205.57 125.12)"><tspan>5479 ms</tspan></text><text transform="translate(241.89 150.26)"><tspan>7872 ms</tspan></text><text transform="translate(649.99 175.39)"><tspan>34751 ms</tspan></text><text transform="translate(272.48 200.53)"><tspan>9887 ms</tspan></text></g><g fill="none" stroke="currentColor" color="#000"><path stroke="#555" d="M117.48 21.01v201.07h633.14V21.01z"/><text fill="#fff" stroke="none" font-family="Arial" font-size="14" text-anchor="middle" transform="translate(434.05 273.86)"><tspan>Time (ms)</tspan></text></g></svg>