<svg xmlns="http://www.w3.org/2000/svg" width="780" height="284" viewBox="0 0 780 284"><title>Gnuplot</title><desc>Produced by GNUPLOT 6.0 patchlevel 4</desc><path fill="#0d1117" d="M0 0h780v284H0z"/><text fill="#fff" color="#000" font-family="Arial" font-size="14" text-anchor="end" transform="translate(107.69 50.69)"><tspan font-weight="bold">jsony</tspan></text><text fill="#fff" color="#000" font-family="Arial" font-size="14" text-anchor="end" transform="translate(107.69 75.83)"><tspan>nanoserde</tspan></text><text fill="#fff" color="#000" font-family="Arial" font-size="14" text-anchor="end" transform="translate(107.69 100.96)"><tspan>miniserde</tspan></text><text fill="#fff" color="#000" font-family="Arial" font-size="14" text-anchor="end" transform="translate(107.69 126.09)"><tspan>midiserde</tspan></text><text fill="#fff" color="#000" font-family="Arial" font-size="14" text-anchor="end" transform="translate(107.69 151.23)"><tspan>serde</tspan></text><text fill="#fff" color="#000" font-family="Arial" font-size="14" text-anchor="end" transform="translate(107.69 176.36)"><tspan>facet</tspan></text><text fill="#fff" color="#000" font-family="Arial" font-size="14" text-anchor="end" transform="translate(107.69 201.5)"><tspan>musli</tspan></text><path fill="none" stroke="#3f3f4f" stroke-width=".5" d="M117.48 222.08V21.01" class="gridline" color="#000"/><g fill="none" stroke="currentColor" color="#000"><path stroke="#555" d="M117.48 222.08v7.87"/><text fill="#fff" stroke="none" font-family="Arial" font-size="14" text-anchor="middle" transform="translate(117.48 247.46)"><tspan> 0</tspan></text></g><path fill="none" stroke="#3f3f4f" stroke-width=".5" d="M181.93 222.08V21.01" class="gridline" color="#000"/><g fill="none" stroke="currentColor" color="#000"><path stroke="#555" d="M181.93 222.08v7.87"/><text fill="#fff" stroke="none" font-family="Arial" font-size="14" text-anchor="middle" transform="translate(181.93 247.46)"><tspan> 500</tspan></text></g><path fill="none" stroke="#3f3f4f" stroke-width=".5" d="M246.38 222.08V21.01" class="gridline" color="#000"/><g fill="none" stroke="currentColor" color="#000"><path stroke="#555" d="M246.38 222.08v7.87"/><text fill="#fff" stroke="none" font-family="Arial" font-size="14" text-anchor="middle" transform="translate(246.38 247.46)"><tspan> 1000</tspan></text></g><path fill="none" stroke="#3f3f4f" stroke-width=".5" d="M310.83 222.08V21.01" class="gridline" color="#000"/><g fill="none" stroke="currentColor" color="#000"><path stroke="#555" d="M310.83 222.08v7.87"/><text fill="#fff" stroke="none" font-family="Arial" font-size="14" text-anchor="middle" transform="translate(310.83 247.46)"><tspan> 1500</tspan></text></g><path fill="none" stroke="#3f3f4f" stroke-width=".5" d="M375.28 222.08V21.01" class="gridline" color="#000"/><g fill="none" stroke="currentColor" color="#000"><path stroke="#555" d="M375.28 222.08v7.87"/><text fill="#fff" stroke="none" font-family="Arial" font-size="14" text-anchor="middle" transform="translate(375.28 247.46)"><tspan> 2000</tspan></text></g><path fill="none" stroke="#3f3f4f" stroke-width=".5" d="M439.74 222.08V21.01" class="gridline" color="#000"/><g fill="none" stroke="currentColor" color="#000"><path stroke="#555" d="M439.74 222.08v7.87"/><text fill="#fff" stroke="none" font-family="Arial" font-size="14" text-anchor="middle" transform="translate(439.74 247.46)"><tspan> 2500</tspan></text></g><path fill="none" stroke="#3f3f4f" stroke-width=".5" d="M504.19 222.08V21.01" class="gridline" color="#000"/><g fill="none" stroke="currentColor" color="#000"><path stroke="#555" d="M504.19 222.08v7.87"/><text fill="#fff" stroke="none" font-family="Arial" font-size="14" text-anchor="middle" transform="translate(504.19 247.46)"><tspan> 3000</tspan></text></g><path fill="none" stroke="#3f3f4f" stroke-width=".5" d="M568.64 222.08V21.01" class="gridline" color="#000"/><g fill="none" stroke="currentColor" color="#000"><path stroke="#555" d="M568.64 222.08v7.87"/><text fill="#fff" stroke="none" font-family="Arial" font-size="14" text-anchor="middle" transform="translate(568.64 247.46)"><tspan> 3500</tspan></text></g><path fill="none" stroke="#3f3f4f" stroke-width=".5" d="M633.09 222.08V21.01" class="gridline" color="#000"/><g fill="none" stroke="currentColor" color="#000"><path stroke="#555" d="M633.09 222.08v7.87"/><text fill="#fff" stroke="none" font-family="Arial" font-size="14" text-anchor="middle" transform="translate(633.09 247.46)"><tspan> 4000</tspan></text></g><path fill="none" stroke="#3f3f4f" stroke-width=".5" d="M697.54 222.08V21.01" class="gridline" color="#000"/><g fill="none" stroke="currentColor" color="#000"><path stroke="#555" d="M697.54 222.08v7.87"/><text fill="#fff" stroke="none" font-family="Arial" font-size="14" text-anchor="middle" transform="translate(697.54 247.46)"><tspan> 4500</tspan></text></g><path fill="none" stroke="#555" d="M117.48 21.01v201.07h633.14V21.01z" color="#000"/><title>$Data using (0.5*$2):0:(0.5*$2):(myBoxWidth/2.):($0+1):ytic(1)</title><g fill="none" stroke="currentColor" color="#000"><path fill="#92b2ca" stroke="none" d="M117.48 56.2h22.66V36.08h-22.66z" shape-rendering="crispEdges"/><path stroke="#92b2ca" d="M117.48 36.09V56.2h22.65V36.09z"/><path fill="#c2c77b" stroke="none" d="M117.48 81.33h77.29V61.21h-77.29z" shape-rendering="crispEdges"/><path stroke="#c2c77b" d="M117.48 61.22v20.11h77.28V61.22z"/><path fill="#f4cf86" stroke="none" d="M117.48 106.46h69.42V86.35h-69.42z" shape-rendering="crispEdges"/><path stroke="#f4cf86" d="M117.48 86.36v20.1h69.41v-20.1z"/><path fill="#e6a472" stroke="none" d="M117.48 131.6h94.21v-20.12h-94.21z" shape-rendering="crispEdges"/><path stroke="#e6a472" d="M117.48 111.49v20.11h94.2v-20.11z"/><path fill="#d77c79" stroke="none" d="M117.48 156.73h166.07v-20.11H117.48z" shape-rendering="crispEdges"/><path stroke="#d77c79" d="M117.48 136.63v20.1h166.06v-20.1z"/><path fill="#d5a8b7" stroke="none" d="M117.48 181.87h141.47v-20.12H117.48z" shape-rendering="crispEdges"/><path stroke="#d5a8b7" d="M117.48 161.76v20.11h141.46v-20.11z"/><path fill="#c0a7cc" stroke="none" d="M117.48 207h527.63v-20.12H117.48z" shape-rendering="crispEdges"/><path stroke="#c0a7cc" d="M117.48 186.89V207H645.1v-20.11z"/></g><title>$Data using ($2):0:(sprintf(&quot;%d ms&quot;, $2))</title><g fill="#a0a0b0" color="#000" font-family="Arial" font-size="11"><text transform="translate(145.02 49.72)"><tspan>175 ms</tspan></text><text transform="translate(199.65 74.86)"><tspan>599 ms</tspan></text><text transform="translate(191.78 99.99)"><tspan>538 ms</tspan></text><text transform="translate(216.57 125.12)"><tspan>730 ms</tspan></text><text transform="translate(288.43 150.26)"><tspan>1288 ms</tspan></text><text transform="translate(263.83 175.39)"><tspan>1097 ms</tspan></text><text transform="translate(649.99 200.53)"><tspan>4093 ms</tspan></text></g><g fill="none" stroke="currentColor" color="#000"><path stroke="#555" d="M117.48 21.01v201.07h633.14V21.01z"/><text fill="#fff" stroke="none" font-family="Arial" font-size="14" text-anchor="middle" transform="translate(434.05 273.86)"><tspan>Time (ms)</tspan></text></g></svg>