<svg xmlns="http://www.w3.org/2000/svg" width="780" height="284" viewBox="0 0 780 284"><title>Gnuplot</title><desc>Produced by GNUPLOT 6.0 patchlevel 4</desc><path fill="#0d1117" d="M0 0h780v284H0z"/><text fill="#fff" color="#000" font-family="Arial" font-size="14" text-anchor="end" transform="translate(107.69 50.69)"><tspan font-weight="bold">jsony</tspan></text><text fill="#fff" color="#000" font-family="Arial" font-size="14" text-anchor="end" transform="translate(107.69 75.83)"><tspan>nanoserde</tspan></text><text fill="#fff" color="#000" font-family="Arial" font-size="14" text-anchor="end" transform="translate(107.69 100.96)"><tspan>miniserde</tspan></text><text fill="#fff" color="#000" font-family="Arial" font-size="14" text-anchor="end" transform="translate(107.69 126.09)"><tspan>midiserde</tspan></text><text fill="#fff" color="#000" font-family="Arial" font-size="14" text-anchor="end" transform="translate(107.69 151.23)"><tspan>serde</tspan></text><text fill="#fff" color="#000" font-family="Arial" font-size="14" text-anchor="end" transform="translate(107.69 176.36)"><tspan>facet</tspan></text><text fill="#fff" color="#000" font-family="Arial" font-size="14" text-anchor="end" transform="translate(107.69 201.5)"><tspan>musli</tspan></text><path fill="none" stroke="#3f3f4f" stroke-width=".5" d="M117.48 222.08V21.01" class="gridline" color="#000"/><g fill="none" stroke="currentColor" color="#000"><path stroke="#555" d="M117.48 222.08v7.87"/><text fill="#fff" stroke="none" font-family="Arial" font-size="14" text-anchor="middle" transform="translate(117.48 247.46)"><tspan> 0</tspan></text></g><path fill="none" stroke="#3f3f4f" stroke-width=".5" d="M218.15 222.08V21.01" class="gridline" color="#000"/><g fill="none" stroke="currentColor" color="#000"><path stroke="#555" d="M218.15 222.08v7.87"/><text fill="#fff" stroke="none" font-family="Arial" font-size="14" text-anchor="middle" transform="translate(218.15 247.46)"><tspan> 2000</tspan></text></g><path fill="none" stroke="#3f3f4f" stroke-width=".5" d="M318.82 222.08V21.01" class="gridline" color="#000"/><g fill="none" stroke="currentColor" color="#000"><path stroke="#555" d="M318.82 222.08v7.87"/><text fill="#fff" stroke="none" font-family="Arial" font-size="14" text-anchor="middle" transform="translate(318.82 247.46)"><tspan> 4000</tspan></text></g><path fill="none" stroke="#3f3f4f" stroke-width=".5" d="M419.49 222.08V21.01" class="gridline" color="#000"/><g fill="none" stroke="currentColor" color="#000"><path stroke="#555" d="M419.49 222.08v7.87"/><text fill="#fff" stroke="none" font-family="Arial" font-size="14" text-anchor="middle" transform="translate(419.49 247.46)"><tspan> 6000</tspan></text></g><path fill="none" stroke="#3f3f4f" stroke-width=".5" d="M520.16 222.08V21.01" class="gridline" color="#000"/><g fill="none" stroke="currentColor" color="#000"><path stroke="#555" d="M520.16 222.08v7.87"/><text fill="#fff" stroke="none" font-family="Arial" font-size="14" text-anchor="middle" transform="translate(520.16 247.46)"><tspan> 8000</tspan></text></g><path fill="none" stroke="#3f3f4f" stroke-width=".5" d="M620.83 222.08V21.01" class="gridline" color="#000"/><g fill="none" stroke="currentColor" color="#000"><path stroke="#555" d="M620.83 222.08v7.87"/><text fill="#fff" stroke="none" font-family="Arial" font-size="14" text-anchor="middle" transform="translate(620.83 247.46)"><tspan> 10000</tspan></text></g><path fill="none" stroke="#3f3f4f" stroke-width=".5" d="M721.5 222.08V21.01" class="gridline" color="#000"/><g fill="none" stroke="currentColor" color="#000"><path stroke="#555" d="M721.5 222.08v7.87"/><text fill="#fff" stroke="none" font-family="Arial" font-size="14" text-anchor="middle" transform="translate(721.5 247.46)"><tspan> 12000</tspan></text></g><path fill="none" stroke="#555" d="M117.48 21.01v201.07h633.14V21.01z" color="#000"/><title>$Data using (0.5*$2):0:(0.5*$2):(myBoxWidth/2.):($0+1):ytic(1)</title><g fill="none" stroke="currentColor" color="#000"><path fill="#92b2ca" stroke="none" d="M117.48 56.2h20.15V36.08h-20.15z" shape-rendering="crispEdges"/><path stroke="#92b2ca" d="M117.48 36.09V56.2h20.14V36.09z"/><path fill="#c2c77b" stroke="none" d="M117.48 81.33h159.05V61.21H117.48z" shape-rendering="crispEdges"/><path stroke="#c2c77b" d="M117.48 61.22v20.11h159.04V61.22z"/><path fill="#f4cf86" stroke="none" d="M117.48 106.46h57.17V86.35h-57.17z" shape-rendering="crispEdges"/><path stroke="#f4cf86" d="M117.48 86.36v20.1h57.16v-20.1z"/><path fill="#e6a472" stroke="none" d="M117.48 131.6h68.57v-20.12h-68.57z" shape-rendering="crispEdges"/><path stroke="#e6a472" d="M117.48 111.49v20.11h68.56v-20.11z"/><path fill="#d77c79" stroke="none" d="M117.48 156.73h271.1v-20.11h-271.1z" shape-rendering="crispEdges"/><path stroke="#d77c79" d="M117.48 136.63v20.1h271.09v-20.1z"/><path fill="#d5a8b7" stroke="none" d="M117.48 181.87h65.19v-20.12h-65.19z" shape-rendering="crispEdges"/><path stroke="#d5a8b7" d="M117.48 161.76v20.11h65.18v-20.11z"/><path fill="#c0a7cc" stroke="none" d="M117.48 207h527.63v-20.12H117.48z" shape-rendering="crispEdges"/><path stroke="#c0a7cc" d="M117.48 186.89V207H645.1v-20.11z"/></g><title>$Data using ($2):0:(sprintf(&quot;%d ms&quot;, $2))</title><g fill="#a0a0b0" color="#000" font-family="Arial" font-size="11"><text transform="translate(142.51 49.72)"><tspan>400 ms</tspan></text><text transform="translate(281.41 74.86)"><tspan>3159 ms</tspan></text><text transform="translate(179.53 99.99)"><tspan>1135 ms</tspan></text><text transform="translate(190.93 125.12)"><tspan>1362 ms</tspan></text><text transform="translate(393.46 150.26)"><tspan>5385 ms</tspan></text><text transform="translate(187.55 175.39)"><tspan>1294 ms</tspan></text><text transform="translate(649.99 200.53)"><tspan>10482 ms</tspan></text></g><g fill="none" stroke="currentColor" color="#000"><path stroke="#555" d="M117.48 21.01v201.07h633.14V21.01z"/><text fill="#fff" stroke="none" font-family="Arial" font-size="14" text-anchor="middle" transform="translate(434.05 273.86)"><tspan>Time (ms)</tspan></text></g></svg>