<svg xmlns="http://www.w3.org/2000/svg" width="780" height="212" viewBox="0 0 780 212"><title>Gnuplot</title><desc>Produced by GNUPLOT 6.0 patchlevel 4</desc><path fill="#0d1117" d="M0 0h780v212H0z"/><text fill="#fff" color="#000" font-family="Arial" font-size="14" text-anchor="end" transform="translate(107.69 50.65)"><tspan font-weight="bold">jsony</tspan></text><text fill="#fff" color="#000" font-family="Arial" font-size="14" text-anchor="end" transform="translate(107.69 75.75)"><tspan>nanoserde</tspan></text><text fill="#fff" color="#000" font-family="Arial" font-size="14" text-anchor="end" transform="translate(107.69 100.84)"><tspan>serde</tspan></text><text fill="#fff" color="#000" font-family="Arial" font-size="14" text-anchor="end" transform="translate(107.69 125.94)"><tspan>musli</tspan></text><path fill="none" stroke="#3f3f4f" stroke-width=".5" d="M117.48 146.48V21.01" class="gridline" color="#000"/><g fill="none" stroke="currentColor" color="#000"><path stroke="#555" d="M117.48 146.48v7.87"/><text fill="#fff" stroke="none" font-family="Arial" font-size="14" text-anchor="middle" transform="translate(117.48 174.89)"><tspan> 0</tspan></text></g><path fill="none" stroke="#3f3f4f" stroke-width=".5" d="M183.43 146.48V21.01" class="gridline" color="#000"/><g fill="none" stroke="currentColor" color="#000"><path stroke="#555" d="M183.43 146.48v7.87"/><text fill="#fff" stroke="none" font-family="Arial" font-size="14" text-anchor="middle" transform="translate(183.43 174.89)"><tspan> 20</tspan></text></g><path fill="none" stroke="#3f3f4f" stroke-width=".5" d="M249.37 146.48V21.01" class="gridline" color="#000"/><g fill="none" stroke="currentColor" color="#000"><path stroke="#555" d="M249.37 146.48v7.87"/><text fill="#fff" stroke="none" font-family="Arial" font-size="14" text-anchor="middle" transform="translate(249.37 174.89)"><tspan> 40</tspan></text></g><path fill="none" stroke="#3f3f4f" stroke-width=".5" d="M315.32 146.48V21.01" class="gridline" color="#000"/><g fill="none" stroke="currentColor" color="#000"><path stroke="#555" d="M315.32 146.48v7.87"/><text fill="#fff" stroke="none" font-family="Arial" font-size="14" text-anchor="middle" transform="translate(315.32 174.89)"><tspan> 60</tspan></text></g><path fill="none" stroke="#3f3f4f" stroke-width=".5" d="M381.26 146.48V21.01" class="gridline" color="#000"/><g fill="none" stroke="currentColor" color="#000"><path stroke="#555" d="M381.26 146.48v7.87"/><text fill="#fff" stroke="none" font-family="Arial" font-size="14" text-anchor="middle" transform="translate(381.26 174.89)"><tspan> 80</tspan></text></g><path fill="none" stroke="#3f3f4f" stroke-width=".5" d="M447.21 146.48V21.01" class="gridline" color="#000"/><g fill="none" stroke="currentColor" color="#000"><path stroke="#555" d="M447.21 146.48v7.87"/><text fill="#fff" stroke="none" font-family="Arial" font-size="14" text-anchor="middle" transform="translate(447.21 174.89)"><tspan> 100</tspan></text></g><path fill="none" stroke="#3f3f4f" stroke-width=".5" d="M513.15 146.48V21.01" class="gridline" color="#000"/><g fill="none" stroke="currentColor" color="#000"><path stroke="#555" d="M513.15 146.48v7.87"/><text fill="#fff" stroke="none" font-family="Arial" font-size="14" text-anchor="middle" transform="translate(513.15 174.89)"><tspan> 120</tspan></text></g><path fill="none" stroke="#3f3f4f" stroke-width=".5" d="M579.1 146.48V21.01" class="gridline" color="#000"/><g fill="none" stroke="currentColor" color="#000"><path stroke="#555" d="M579.1 146.48v7.87"/><text fill="#fff" stroke="none" font-family="Arial" font-size="14" text-anchor="middle" transform="translate(579.1 174.89)"><tspan> 140</tspan></text></g><path fill="none" stroke="#3f3f4f" stroke-width=".5" d="M645.05 146.48V21.01" class="gridline" color="#000"/><g fill="none" stroke="currentColor" color="#000"><path stroke="#555" d="M645.05 146.48v7.87"/><text fill="#fff" stroke="none" font-family="Arial" font-size="14" text-anchor="middle" transform="translate(645.05 174.89)"><tspan> 160</tspan></text></g><path fill="none" stroke="#3f3f4f" stroke-width=".5" d="M710.99 146.48V21.01" class="gridline" color="#000"/><g fill="none" stroke="currentColor" color="#000"><path stroke="#555" d="M710.99 146.48v7.87"/><text fill="#fff" stroke="none" font-family="Arial" font-size="14" text-anchor="middle" transform="translate(710.99 174.89)"><tspan> 180</tspan></text></g><path fill="none" stroke="#555" d="M117.48 21.01v125.47h633.14V21.01z" color="#000"/><title>$Data using (0.5*$2):0:(0.5*$2):(myBoxWidth/2.):($0+1):ytic(1)</title><g fill="none" stroke="currentColor" color="#000"><path fill="#92b2ca" stroke="none" d="M117.48 56.14h237.41V36.06H117.48z" shape-rendering="crispEdges"/><path stroke="#92b2ca" d="M117.48 36.07v20.07h237.4V36.07z"/><path fill="#c2c77b" stroke="none" d="M117.48 81.24h435.25V61.15H117.48z" shape-rendering="crispEdges"/><path stroke="#c2c77b" d="M117.48 61.16v20.08h435.24V61.16z"/><path fill="#f4cf86" stroke="none" d="M117.48 106.33h527.63V86.24H117.48z" shape-rendering="crispEdges"/><path stroke="#f4cf86" d="M117.48 86.25v20.08H645.1V86.25z"/><path fill="#e6a472" stroke="none" d="M117.48 131.42h488.01v-20.08H117.48z" shape-rendering="crispEdges"/><path stroke="#e6a472" d="M117.48 111.35v20.07h488v-20.07z"/></g><title>$Data using ($2):0:(sprintf(&quot;%d KB&quot;, $2))</title><g fill="#a0a0b0" color="#000" font-family="Arial" font-size="11"><text transform="translate(359.77 49.68)"><tspan>72 KB</tspan></text><text transform="translate(557.61 74.78)"><tspan>132 KB</tspan></text><text transform="translate(649.99 99.87)"><tspan>160 KB</tspan></text><text transform="translate(610.37 124.97)"><tspan>148 KB</tspan></text></g><g fill="none" stroke="currentColor" color="#000"><path stroke="#555" d="M117.48 21.01v125.47h633.14V21.01z"/><text fill="#fff" stroke="none" font-family="Arial" font-size="14" text-anchor="middle" transform="translate(434.05 201.86)"><tspan>Size (KB)</tspan></text></g></svg>