<svg xmlns="http://www.w3.org/2000/svg" width="780" height="212" viewBox="0 0 780 212"><title>Gnuplot</title><desc>Produced by GNUPLOT 6.0 patchlevel 4</desc><path fill="#0d1117" d="M0 0h780v212H0z"/><text fill="#fff" color="#000" font-family="Arial" font-size="14" text-anchor="end" transform="translate(107.69 50.65)"><tspan font-weight="bold">jsony</tspan></text><text fill="#fff" color="#000" font-family="Arial" font-size="14" text-anchor="end" transform="translate(107.69 75.75)"><tspan>nanoserde</tspan></text><text fill="#fff" color="#000" font-family="Arial" font-size="14" text-anchor="end" transform="translate(107.69 100.84)"><tspan>serde</tspan></text><text fill="#fff" color="#000" font-family="Arial" font-size="14" text-anchor="end" transform="translate(107.69 125.94)"><tspan>musli</tspan></text><path fill="none" stroke="#3f3f4f" stroke-width=".5" d="M117.48 146.48V21.01" class="gridline" color="#000"/><g fill="none" stroke="currentColor" color="#000"><path stroke="#555" d="M117.48 146.48v7.87"/><text fill="#fff" stroke="none" font-family="Arial" font-size="14" text-anchor="middle" transform="translate(117.48 174.89)"><tspan> 0</tspan></text></g><path fill="none" stroke="#3f3f4f" stroke-width=".5" d="M224.94 146.48V21.01" class="gridline" color="#000"/><g fill="none" stroke="currentColor" color="#000"><path stroke="#555" d="M224.94 146.48v7.87"/><text fill="#fff" stroke="none" font-family="Arial" font-size="14" text-anchor="middle" transform="translate(224.94 174.89)"><tspan> 500</tspan></text></g><path fill="none" stroke="#3f3f4f" stroke-width=".5" d="M332.39 146.48V21.01" class="gridline" color="#000"/><g fill="none" stroke="currentColor" color="#000"><path stroke="#555" d="M332.39 146.48v7.87"/><text fill="#fff" stroke="none" font-family="Arial" font-size="14" text-anchor="middle" transform="translate(332.39 174.89)"><tspan> 1000</tspan></text></g><path fill="none" stroke="#3f3f4f" stroke-width=".5" d="M439.85 146.48V21.01" class="gridline" color="#000"/><g fill="none" stroke="currentColor" color="#000"><path stroke="#555" d="M439.85 146.48v7.87"/><text fill="#fff" stroke="none" font-family="Arial" font-size="14" text-anchor="middle" transform="translate(439.85 174.89)"><tspan> 1500</tspan></text></g><path fill="none" stroke="#3f3f4f" stroke-width=".5" d="M547.3 146.48V21.01" class="gridline" color="#000"/><g fill="none" stroke="currentColor" color="#000"><path stroke="#555" d="M547.3 146.48v7.87"/><text fill="#fff" stroke="none" font-family="Arial" font-size="14" text-anchor="middle" transform="translate(547.3 174.89)"><tspan> 2000</tspan></text></g><path fill="none" stroke="#3f3f4f" stroke-width=".5" d="M654.76 146.48V21.01" class="gridline" color="#000"/><g fill="none" stroke="currentColor" color="#000"><path stroke="#555" d="M654.76 146.48v7.87"/><text fill="#fff" stroke="none" font-family="Arial" font-size="14" text-anchor="middle" transform="translate(654.76 174.89)"><tspan> 2500</tspan></text></g><path fill="none" stroke="#555" d="M117.48 21.01v125.47h633.14V21.01z" color="#000"/><title>$Data using (0.5*$2):0:(0.5*$2):(myBoxWidth/2.):($0+1):ytic(1)</title><g fill="none" stroke="currentColor" color="#000"><path fill="#92b2ca" stroke="none" d="M117.48 56.14h94.31V36.06h-94.31z" shape-rendering="crispEdges"/><path stroke="#92b2ca" d="M117.48 36.07v20.07h94.3V36.07z"/><path fill="#c2c77b" stroke="none" d="M117.48 81.24h156.27V61.15H117.48z" shape-rendering="crispEdges"/><path stroke="#c2c77b" d="M117.48 61.16v20.08h156.26V61.16z"/><path fill="#f4cf86" stroke="none" d="M117.48 106.33h422.83V86.24H117.48z" shape-rendering="crispEdges"/><path stroke="#f4cf86" d="M117.48 86.25v20.08H540.3V86.25z"/><path fill="#e6a472" stroke="none" d="M117.48 131.42h527.63v-20.08H117.48z" shape-rendering="crispEdges"/><path stroke="#e6a472" d="M117.48 111.35v20.07H645.1v-20.07z"/></g><title>$Data using ($2):0:(sprintf(&quot;%d ms&quot;, $2))</title><g fill="#a0a0b0" color="#000" font-family="Arial" font-size="11"><text transform="translate(216.67 49.68)"><tspan>438 ms</tspan></text><text transform="translate(278.63 74.78)"><tspan>727 ms</tspan></text><text transform="translate(545.19 99.87)"><tspan>1967 ms</tspan></text><text transform="translate(649.99 124.97)"><tspan>2455 ms</tspan></text></g><g fill="none" stroke="currentColor" color="#000"><path stroke="#555" d="M117.48 21.01v125.47h633.14V21.01z"/><text fill="#fff" stroke="none" font-family="Arial" font-size="14" text-anchor="middle" transform="translate(434.05 201.86)"><tspan>Time (ms)</tspan></text></g></svg>