<svg xmlns="http://www.w3.org/2000/svg" width="780" height="212" viewBox="0 0 780 212"><title>Gnuplot</title><desc>Produced by GNUPLOT 6.0 patchlevel 4</desc><path fill="#0d1117" d="M0 0h780v212H0z"/><text fill="#fff" color="#000" font-family="Arial" font-size="14" text-anchor="end" transform="translate(107.69 50.65)"><tspan font-weight="bold">jsony</tspan></text><text fill="#fff" color="#000" font-family="Arial" font-size="14" text-anchor="end" transform="translate(107.69 75.75)"><tspan>nanoserde</tspan></text><text fill="#fff" color="#000" font-family="Arial" font-size="14" text-anchor="end" transform="translate(107.69 100.84)"><tspan>serde</tspan></text><text fill="#fff" color="#000" font-family="Arial" font-size="14" text-anchor="end" transform="translate(107.69 125.94)"><tspan>musli</tspan></text><path fill="none" stroke="#3f3f4f" stroke-width=".5" d="M117.48 146.48V21.01" class="gridline" color="#000"/><g fill="none" stroke="currentColor" color="#000"><path stroke="#555" d="M117.48 146.48v7.87"/><text fill="#fff" stroke="none" font-family="Arial" font-size="14" text-anchor="middle" transform="translate(117.48 174.89)"><tspan> 0</tspan></text></g><path fill="none" stroke="#3f3f4f" stroke-width=".5" d="M209.35 146.48V21.01" class="gridline" color="#000"/><g fill="none" stroke="currentColor" color="#000"><path stroke="#555" d="M209.35 146.48v7.87"/><text fill="#fff" stroke="none" font-family="Arial" font-size="14" text-anchor="middle" transform="translate(209.35 174.89)"><tspan> 100</tspan></text></g><path fill="none" stroke="#3f3f4f" stroke-width=".5" d="M301.23 146.48V21.01" class="gridline" color="#000"/><g fill="none" stroke="currentColor" color="#000"><path stroke="#555" d="M301.23 146.48v7.87"/><text fill="#fff" stroke="none" font-family="Arial" font-size="14" text-anchor="middle" transform="translate(301.23 174.89)"><tspan> 200</tspan></text></g><path fill="none" stroke="#3f3f4f" stroke-width=".5" d="M393.1 146.48V21.01" class="gridline" color="#000"/><g fill="none" stroke="currentColor" color="#000"><path stroke="#555" d="M393.1 146.48v7.87"/><text fill="#fff" stroke="none" font-family="Arial" font-size="14" text-anchor="middle" transform="translate(393.1 174.89)"><tspan> 300</tspan></text></g><path fill="none" stroke="#3f3f4f" stroke-width=".5" d="M484.97 146.48V21.01" class="gridline" color="#000"/><g fill="none" stroke="currentColor" color="#000"><path stroke="#555" d="M484.97 146.48v7.87"/><text fill="#fff" stroke="none" font-family="Arial" font-size="14" text-anchor="middle" transform="translate(484.97 174.89)"><tspan> 400</tspan></text></g><path fill="none" stroke="#3f3f4f" stroke-width=".5" d="M576.84 146.48V21.01" class="gridline" color="#000"/><g fill="none" stroke="currentColor" color="#000"><path stroke="#555" d="M576.84 146.48v7.87"/><text fill="#fff" stroke="none" font-family="Arial" font-size="14" text-anchor="middle" transform="translate(576.84 174.89)"><tspan> 500</tspan></text></g><path fill="none" stroke="#3f3f4f" stroke-width=".5" d="M668.72 146.48V21.01" class="gridline" color="#000"/><g fill="none" stroke="currentColor" color="#000"><path stroke="#555" d="M668.72 146.48v7.87"/><text fill="#fff" stroke="none" font-family="Arial" font-size="14" text-anchor="middle" transform="translate(668.72 174.89)"><tspan> 600</tspan></text></g><path fill="none" stroke="#555" d="M117.48 21.01v125.47h633.14V21.01z" color="#000"/><title>$Data using (0.5*$2):0:(0.5*$2):(myBoxWidth/2.):($0+1):ytic(1)</title><g fill="none" stroke="currentColor" color="#000"><path fill="#92b2ca" stroke="none" d="M117.48 56.14h35.91V36.06h-35.91z" shape-rendering="crispEdges"/><path stroke="#92b2ca" d="M117.48 36.07v20.07h35.9V36.07z"/><path fill="#c2c77b" stroke="none" d="M117.48 81.24h70.32V61.15h-70.32z" shape-rendering="crispEdges"/><path stroke="#c2c77b" d="M117.48 61.16v20.08h70.31V61.16z"/><path fill="#f4cf86" stroke="none" d="M117.48 106.33h148.18V86.24H117.48z" shape-rendering="crispEdges"/><path stroke="#f4cf86" d="M117.48 86.25v20.08h148.17V86.25z"/><path fill="#e6a472" stroke="none" d="M117.48 131.42h527.63v-20.08H117.48z" shape-rendering="crispEdges"/><path stroke="#e6a472" d="M117.48 111.35v20.07H645.1v-20.07z"/></g><title>$Data using ($2):0:(sprintf(&quot;%d ms&quot;, $2))</title><g fill="#a0a0b0" color="#000" font-family="Arial" font-size="11"><text transform="translate(158.27 49.68)"><tspan>39 ms</tspan></text><text transform="translate(192.68 74.78)"><tspan>76 ms</tspan></text><text transform="translate(270.54 99.87)"><tspan>161 ms</tspan></text><text transform="translate(649.99 124.97)"><tspan>574 ms</tspan></text></g><g fill="none" stroke="currentColor" color="#000"><path stroke="#555" d="M117.48 21.01v125.47h633.14V21.01z"/><text fill="#fff" stroke="none" font-family="Arial" font-size="14" text-anchor="middle" transform="translate(434.05 201.86)"><tspan>Time (ms)</tspan></text></g></svg>